<?xml version="1.0" encoding="UTF-8" standalone="no"?>
<!DOCTYPE svg PUBLIC "-//W3C//DTD SVG 1.1//EN"
 "http://www.w3.org/Graphics/SVG/1.1/DTD/svg11.dtd">
<!-- Generated by graphviz version 2.40.1 (20161225.0304)
 -->
<!-- Title: isucondition Pages: 1 -->
<svg width="1258pt" height="369pt"
 viewBox="0.00 0.00 1258.00 369.00" xmlns="http://www.w3.org/2000/svg" xmlns:xlink="http://www.w3.org/1999/xlink">
<g id="graph0" class="graph" transform="scale(1 1) rotate(0) translate(4 365)">
<title>isucondition</title>
<polygon fill="#ffffff" stroke="transparent" points="-4,4 -4,-365 1254,-365 1254,4 -4,4"/>
<!-- isu_association_config -->
<g id="node1" class="node">
<title>isu_association_config</title>
<polygon fill="#efefef" stroke="transparent" points="43,-192.5 43,-227.5 335,-227.5 335,-192.5 43,-192.5"/>
<polygon fill="none" stroke="#000000" points="43,-192.5 43,-227.5 335,-227.5 335,-192.5 43,-192.5"/>
<text text-anchor="start" x="49.8484" y="-205.3" font-family="Arial Bold" font-size="18.00" fill="#000000">isu_association_config</text>
<text text-anchor="start" x="230.8978" y="-205.3" font-family="Arial" font-size="14.00" fill="#000000"> </text>
<text text-anchor="start" x="234.7884" y="-205.3" font-family="Arial" font-size="14.00" fill="#666666">[BASE TABLE]</text>
<polygon fill="none" stroke="#000000" points="43,-162.5 43,-192.5 335,-192.5 335,-162.5 43,-162.5"/>
<text text-anchor="start" x="50" y="-173.9" font-family="Arial" font-size="14.00" fill="#000000">name </text>
<text text-anchor="start" x="88.899" y="-173.9" font-family="Arial" font-size="14.00" fill="#666666">[varchar(255)]</text>
<polygon fill="none" stroke="#000000" points="43,-132.5 43,-162.5 335,-162.5 335,-132.5 43,-132.5"/>
<text text-anchor="start" x="50" y="-143.9" font-family="Arial" font-size="14.00" fill="#000000">url </text>
<text text-anchor="start" x="69.4404" y="-143.9" font-family="Arial" font-size="14.00" fill="#666666">[varchar(255)]</text>
</g>
<!-- user -->
<g id="node2" class="node">
<title>user</title>
<polygon fill="#efefef" stroke="transparent" points="439,-192.5 439,-227.5 611,-227.5 611,-192.5 439,-192.5"/>
<polygon fill="none" stroke="#000000" points="439,-192.5 439,-227.5 611,-227.5 611,-192.5 439,-192.5"/>
<text text-anchor="start" x="458.8708" y="-205.3" font-family="Arial Bold" font-size="18.00" fill="#000000">user</text>
<text text-anchor="start" x="493.8754" y="-205.3" font-family="Arial" font-size="14.00" fill="#000000"> </text>
<text text-anchor="start" x="497.766" y="-205.3" font-family="Arial" font-size="14.00" fill="#666666">[BASE TABLE]</text>
<polygon fill="none" stroke="#000000" points="439,-162.5 439,-192.5 611,-192.5 611,-162.5 439,-162.5"/>
<text text-anchor="start" x="445.6571" y="-173.9" font-family="Arial" font-size="14.00" fill="#000000">jia_user_id </text>
<text text-anchor="start" x="517.2237" y="-173.9" font-family="Arial" font-size="14.00" fill="#666666">[varchar(255)]</text>
<polygon fill="none" stroke="#000000" points="439,-132.5 439,-162.5 611,-162.5 611,-132.5 439,-132.5"/>
<text text-anchor="start" x="446" y="-143.9" font-family="Arial" font-size="14.00" fill="#000000">created_at </text>
<text text-anchor="start" x="516.028" y="-143.9" font-family="Arial" font-size="14.00" fill="#666666">[datetime(6)]</text>
</g>
<!-- isu_condition -->
<g id="node3" class="node">
<title>isu_condition</title>
<polygon fill="#efefef" stroke="transparent" points="715,-267.5 715,-302.5 931,-302.5 931,-267.5 715,-267.5"/>
<polygon fill="none" stroke="#000000" points="715,-267.5 715,-302.5 931,-302.5 931,-267.5 715,-267.5"/>
<text text-anchor="start" x="721.859" y="-280.3" font-family="Arial Bold" font-size="18.00" fill="#000000">isu_condition</text>
<text text-anchor="start" x="826.8872" y="-280.3" font-family="Arial" font-size="14.00" fill="#000000"> </text>
<text text-anchor="start" x="830.7778" y="-280.3" font-family="Arial" font-size="14.00" fill="#666666">[BASE TABLE]</text>
<polygon fill="none" stroke="#000000" points="715,-237.5 715,-267.5 931,-267.5 931,-237.5 715,-237.5"/>
<text text-anchor="start" x="722" y="-248.9" font-family="Arial" font-size="14.00" fill="#000000">id </text>
<text text-anchor="start" x="736.7798" y="-248.9" font-family="Arial" font-size="14.00" fill="#666666">[bigint(20)]</text>
<polygon fill="none" stroke="#000000" points="715,-207.5 715,-237.5 931,-237.5 931,-207.5 715,-207.5"/>
<text text-anchor="start" x="722" y="-218.9" font-family="Arial" font-size="14.00" fill="#000000">jia_isu_uuid </text>
<text text-anchor="start" x="799.7952" y="-218.9" font-family="Arial" font-size="14.00" fill="#666666">[char(36)]</text>
<polygon fill="none" stroke="#000000" points="715,-177.5 715,-207.5 931,-207.5 931,-177.5 715,-177.5"/>
<text text-anchor="start" x="722" y="-188.9" font-family="Arial" font-size="14.00" fill="#000000">timestamp </text>
<text text-anchor="start" x="790.4474" y="-188.9" font-family="Arial" font-size="14.00" fill="#666666">[datetime]</text>
<polygon fill="none" stroke="#000000" points="715,-147.5 715,-177.5 931,-177.5 931,-147.5 715,-147.5"/>
<text text-anchor="start" x="722" y="-158.9" font-family="Arial" font-size="14.00" fill="#000000">is_sitting </text>
<text text-anchor="start" x="780.3394" y="-158.9" font-family="Arial" font-size="14.00" fill="#666666">[tinyint(1)]</text>
<polygon fill="none" stroke="#000000" points="715,-117.5 715,-147.5 931,-147.5 931,-117.5 715,-117.5"/>
<text text-anchor="start" x="722" y="-128.9" font-family="Arial" font-size="14.00" fill="#000000">condition </text>
<text text-anchor="start" x="781.9074" y="-128.9" font-family="Arial" font-size="14.00" fill="#666666">[varchar(255)]</text>
<polygon fill="none" stroke="#000000" points="715,-87.5 715,-117.5 931,-117.5 931,-87.5 715,-87.5"/>
<text text-anchor="start" x="722" y="-98.9" font-family="Arial" font-size="14.00" fill="#000000">message </text>
<text text-anchor="start" x="782.6816" y="-98.9" font-family="Arial" font-size="14.00" fill="#666666">[varchar(255)]</text>
<polygon fill="none" stroke="#000000" points="715,-57.5 715,-87.5 931,-87.5 931,-57.5 715,-57.5"/>
<text text-anchor="start" x="722" y="-68.9" font-family="Arial" font-size="14.00" fill="#000000">created_at </text>
<text text-anchor="start" x="792.028" y="-68.9" font-family="Arial" font-size="14.00" fill="#666666">[datetime(6)]</text>
</g>
<!-- isu -->
<g id="node4" class="node">
<title>isu</title>
<polygon fill="#efefef" stroke="transparent" points="1035,-282.5 1035,-317.5 1207,-317.5 1207,-282.5 1035,-282.5"/>
<polygon fill="none" stroke="#000000" points="1035,-282.5 1035,-317.5 1207,-317.5 1207,-282.5 1035,-282.5"/>
<text text-anchor="start" x="1060.8729" y="-295.3" font-family="Arial Bold" font-size="18.00" fill="#000000">isu</text>
<text text-anchor="start" x="1083.8733" y="-295.3" font-family="Arial" font-size="14.00" fill="#000000"> </text>
<text text-anchor="start" x="1087.7639" y="-295.3" font-family="Arial" font-size="14.00" fill="#666666">[BASE TABLE]</text>
<polygon fill="none" stroke="#000000" points="1035,-252.5 1035,-282.5 1207,-282.5 1207,-252.5 1035,-252.5"/>
<text text-anchor="start" x="1042" y="-263.9" font-family="Arial" font-size="14.00" fill="#000000">id </text>
<text text-anchor="start" x="1056.7798" y="-263.9" font-family="Arial" font-size="14.00" fill="#666666">[bigint(20)]</text>
<polygon fill="none" stroke="#000000" points="1035,-222.5 1035,-252.5 1207,-252.5 1207,-222.5 1035,-222.5"/>
<text text-anchor="start" x="1042" y="-233.9" font-family="Arial" font-size="14.00" fill="#000000">jia_isu_uuid </text>
<text text-anchor="start" x="1119.7952" y="-233.9" font-family="Arial" font-size="14.00" fill="#666666">[char(36)]</text>
<polygon fill="none" stroke="#000000" points="1035,-192.5 1035,-222.5 1207,-222.5 1207,-192.5 1035,-192.5"/>
<text text-anchor="start" x="1042" y="-203.9" font-family="Arial" font-size="14.00" fill="#000000">name </text>
<text text-anchor="start" x="1080.899" y="-203.9" font-family="Arial" font-size="14.00" fill="#666666">[varchar(255)]</text>
<polygon fill="none" stroke="#000000" points="1035,-162.5 1035,-192.5 1207,-192.5 1207,-162.5 1035,-162.5"/>
<text text-anchor="start" x="1042" y="-173.9" font-family="Arial" font-size="14.00" fill="#000000">image </text>
<text text-anchor="start" x="1084.0056" y="-173.9" font-family="Arial" font-size="14.00" fill="#666666">[longblob]</text>
<polygon fill="none" stroke="#000000" points="1035,-132.5 1035,-162.5 1207,-162.5 1207,-132.5 1035,-132.5"/>
<text text-anchor="start" x="1042" y="-143.9" font-family="Arial" font-size="14.00" fill="#000000">character </text>
<text text-anchor="start" x="1104.2328" y="-143.9" font-family="Arial" font-size="14.00" fill="#666666">[varchar(255)]</text>
<polygon fill="none" stroke="#000000" points="1035,-102.5 1035,-132.5 1207,-132.5 1207,-102.5 1035,-102.5"/>
<text text-anchor="start" x="1041.6571" y="-113.9" font-family="Arial" font-size="14.00" fill="#000000">jia_user_id </text>
<text text-anchor="start" x="1113.2237" y="-113.9" font-family="Arial" font-size="14.00" fill="#666666">[varchar(255)]</text>
<polygon fill="none" stroke="#000000" points="1035,-72.5 1035,-102.5 1207,-102.5 1207,-72.5 1035,-72.5"/>
<text text-anchor="start" x="1042" y="-83.9" font-family="Arial" font-size="14.00" fill="#000000">created_at </text>
<text text-anchor="start" x="1112.028" y="-83.9" font-family="Arial" font-size="14.00" fill="#666666">[datetime(6)]</text>
<polygon fill="none" stroke="#000000" points="1035,-42.5 1035,-72.5 1207,-72.5 1207,-42.5 1035,-42.5"/>
<text text-anchor="start" x="1042" y="-53.9" font-family="Arial" font-size="14.00" fill="#000000">updated_at </text>
<text text-anchor="start" x="1115.9326" y="-53.9" font-family="Arial" font-size="14.00" fill="#666666">[datetime(6)]</text>
</g>
</g>
</svg>
